<?xml version="1.0" encoding="UTF-8"?>
<svg id="Ebene_1" xmlns="http://www.w3.org/2000/svg" version="1.1" viewBox="0 0 2816 1536">
  <!-- Generator: Adobe Illustrator 30.2.1, SVG Export Plug-In . SVG Version: 2.1.1 Build 1)  -->
  <defs>
    <style>
      .st0 {
        fill: #ba1738;
      }

      .st1 {
        fill: #fefefe;
      }

      .st2 {
        fill: #152032;
      }
    </style>
  </defs>
  <path class="st2" d="M298.61,956.14l-59.42.34-.08-290,57.45-.95,2.17,32.89c9.6-17.62,23.6-29.42,42.72-33.72,42.26-9.51,83.16,12.8,98.68,53.73,13.81,36.41,12.5,76.86-2.24,112.67-13.35,31.1-41.12,49.55-74.41,50.7-26.58.92-48.62-10.53-64.16-33.54l-.71,107.89ZM381.9,736.06c-6.78-16.02-21.25-25.82-36.97-25.89-16.14-.08-31.74,7.98-39.13,24.17-10.9,23.85-10.74,54.43,1.9,77.16,8.47,15.24,23.07,23.01,39.1,22.28,40.68-1.87,50.96-60.24,35.11-97.71Z"/>
  <path class="st2" d="M1349.34,911.59c-16.67,45.84-72.53,56.22-112.26,39.77l12.71-44.06c11.32,1.65,22.42,5.76,32.43.21,10.01-5.55,14.76-17.83,15.21-29.22l-78.18-212.36,62.84-.24,47.02,149.39,46.66-149.3,62.85.23-89.27,245.57Z"/>
  <path class="st2" d="M1450.79,817.26c.76-84.81,121.18-55.12,131.48-79.82,2.44-5.85,1.41-11.47-1.32-16.78-5.79-11.26-18.47-14.77-30.92-14.94-17.35-.24-32.12,7.87-37.51,24.95l-53.49-5.57c12.66-64.49,94.19-74.06,143.99-52.75,24.27,10.39,40.41,31.03,40.52,57.86l.6,147.54-55.43.14-1.38-28.1c-18.15,34.39-67.48,39.57-99.9,25.43-23.48-10.24-36.87-31.82-36.64-57.96ZM1557.15,837.91c26.76-8.55,28.95-33.89,26.55-58.16-21.83,13.15-77.44,1.75-75.92,37.26.4,9.37,6.37,17.7,16.33,21.03,10.19,3.4,21.73,3.48,33.03-.13Z"/>
  <path class="st2" d="M1006.2,817.06c.99-84.5,119.77-55.05,130.93-79.54,2.29-5.03,1.7-10.55-.59-15.68-5.33-11.91-17.85-16.02-30.53-16.25-17.34-.31-32.61,7.48-38.23,24.78l-53.57-4.54c10.92-63.29,91.18-74.85,141.56-54.59,26.94,10.84,43.05,33.96,43.04,62.87l-.07,143.68-54.74.06-.9-27.9c-20.58,34.73-69.16,39.37-101.65,24.64-22.85-10.36-35.55-31.73-35.24-57.53ZM1085.27,839.74c19.57,3.3,39.26-2.59,48.84-19.36,7.06-12.35,6.15-26.44,4.89-40.69-20.1,9.84-41.6,6.53-59.63,13.8-10.99,4.43-17.44,14.13-16.01,25.43,1.28,10.1,9.37,18.71,21.9,20.82Z"/>
  <path class="st2" d="M476.42,818.87c-.56-23.95,10.5-43.32,30.92-54.15,37.86-20.07,92.43-9.23,100.68-27.55,2.96-6.58,1.3-13.32-2.56-19.02-6.81-10.05-19.41-12.63-31.41-12.56-16.73.1-30.54,8.35-35.78,24.84l-53.44-4.57c10.15-63.39,91.76-75.5,142.56-53.93,27,11.47,41.84,35.4,41.78,64.18l-.29,141.82-54.65-.05c-.94-9.23.58-17.14-1.68-26.8-18.31,29.1-54.4,36.69-89.01,27.95-27.98-7.07-46.45-30.43-47.15-60.14ZM581.67,838.14c26.66-8.11,30.82-33.18,27.86-58.65-21.16,10.63-39.18,6.06-58.69,13.23-11.63,4.27-18.59,14.16-17.1,26.07,2.72,21.68,29.05,25.1,47.93,19.35Z"/>
  <path class="st0" d="M2448.9,825.05c19.88,19.04,64.93,17.59,76.55-12.4l54.84,4.16c-14.48,63.55-93.71,78.32-146.77,55.83-50.42-21.38-64.99-79.47-54.99-129.67,13.65-68.48,86.89-96.56,144.8-72.84,47.13,19.31,62.52,69.14,57.34,116.26l-146.72.37c.74,14.15,4.57,28.37,14.93,38.28ZM2524.93,749.14c-1.09-23.29-17.44-41.59-40.83-42.8-26.41-1.36-48.09,17.19-49.13,43.07l89.96-.27Z"/>
  <path class="st0" d="M2088.8,872.05c-59.5,24.71-130.22,5.6-150.73-58.33-18.63-58.06,1.7-129.44,66.7-146.96,58.81-15.85,120.75,9.39,135.12,71.72,11.73,50.84-1.22,107.19-51.09,133.57ZM2076.92,808.07c9.85-23.53,9.13-49.8-.17-72.58-6.78-16.6-20.86-27.09-37.79-27.24-16.02-.14-31.22,8.14-38.57,24.04-11.03,23.85-11.77,52.64-1.34,76.62,7.49,17.21,22.48,27.15,39.86,26.66,16.54-.47,30.75-10.15,38.01-27.5Z"/>
  <polygon class="st0" points="2305.96 666.2 2368.66 665.97 2292.78 877.65 2227.24 877.67 2151.13 665.92 2214.09 665.79 2260.18 813.15 2305.96 666.2"/>
  <path class="st2" d="M976.39,829.95l8.49,44.47c-20.36,7.87-41.36,9.51-61.76,4.37-25.73-6.48-43.8-27.25-43.96-54.23l-.67-113.93-28.75-.67-.02-43.97,28.62-.69,1.11-53.23,58.67.18.64,52.96,41.57.67-.02,44.15-41.75.65v103.28c0,9.44,6.43,16.66,15.38,18.31,7.21,1.33,12.81.28,22.44-2.33Z"/>
  <path class="st2" d="M824,829.93c3.86,15,6.38,28.58,8.48,44.21-29.58,13.2-71.71,10.52-93.34-15.77-8.21-9.98-11.6-24.78-11.65-38.31l-.4-109.18-29.27-.96-.09-43.82,29.12-.39.88-53.51,58.53.02.76,52.95,41.3.74-.03,44.13-41.45.44.07,103.3c0,10.22,7.18,17.39,16.59,18.76,6.76.99,11.95-.24,20.49-2.61Z"/>
  <polygon class="st0" points="1898.71 877.58 1839.18 877.85 1839.08 593.79 1898.67 593.64 1898.71 877.58"/>
  <path class="st0" d="M1795.46,796.5c-15.34,21.76-34.8,37.95-55.48,54.78-20.45-16.01-39.37-32.29-54.12-52.44-12.06-16.47-10.23-37.41,5.06-49.05,15.62-11.89,37.66-7.52,49.13,11.19,10.41-17.9,30.53-22.53,46.48-12.75,15.66,9.6,20.9,31.29,8.93,48.27Z"/>
  <path class="st1" d="M381.9,736.06c15.85,37.47,5.57,95.84-35.11,97.71-16.03.73-30.63-7.04-39.1-22.28-12.64-22.73-12.8-53.31-1.9-77.16,7.4-16.19,22.99-24.24,39.13-24.17,15.73.07,30.2,9.87,36.97,25.89Z"/>
  <path class="st1" d="M1557.15,837.91c-11.3,3.61-22.84,3.53-33.03.13-9.96-3.32-15.93-11.65-16.33-21.03-1.52-35.5,54.09-24.11,75.92-37.26,2.4,24.27.21,49.61-26.55,58.16Z"/>
  <path class="st1" d="M1085.27,839.74c-12.54-2.11-20.63-10.72-21.9-20.82-1.43-11.3,5.03-21,16.01-25.43,18.03-7.27,39.52-3.96,59.63-13.8,1.25,14.26,2.17,28.34-4.89,40.69-9.59,16.78-29.27,22.66-48.84,19.36Z"/>
  <path class="st1" d="M581.67,838.14c-18.88,5.74-45.21,2.33-47.93-19.35-1.49-11.9,5.47-21.79,17.1-26.07,19.51-7.17,37.53-2.59,58.69-13.23,2.95,25.46-1.2,50.54-27.86,58.65Z"/>
  <path class="st1" d="M2524.93,749.14l-89.96.27c1.04-25.88,22.72-44.43,49.13-43.07,23.39,1.21,39.74,19.51,40.83,42.8Z"/>
  <path class="st1" d="M2076.92,808.07c-7.26,17.35-21.47,27.03-38.01,27.5-17.38.49-32.36-9.45-39.86-26.66-10.44-23.98-9.69-52.78,1.34-76.62,7.35-15.89,22.55-24.17,38.57-24.04,16.92.15,31.01,10.64,37.79,27.24,9.3,22.78,10.02,49.05.17,72.58Z"/>
</svg>